<?xml version="1.0" encoding="UTF-8"?>
<svg id="Layer_1" xmlns="http://www.w3.org/2000/svg" version="1.1" viewBox="0 0 550 108">
  <!-- Generator: Adobe Illustrator 29.3.1, SVG Export Plug-In . SVG Version: 2.1.0 Build 151)  -->
  <defs>
    <style>
      .st0 {
        fill: #022658;
      }

      .st1 {
        fill: #fff;
      }
    </style>
  </defs>
  <g>
    <path class="st1" d="M307.2,33.5c5-19.9-8.7-21.8-14.1-21-.2,0-.4,0-.5,0-6.7-5.8-14.3-9.1-23.1-9.1-26.9,0-45,22.7-45,50.6s18.1,50.6,45,50.6,41.3-20.7,41.3-48.6-1.3-16.2-3.6-22.5"/>
    <path class="st0" d="M303.8,29.5h0c-1.1-2.4-2.2-3.8-2.4-3.9-.3-.2-.5,0-.8.2-7.7,11.3-11.8,23.7-13.7,34.1-.4,2.4-.8,4.9-1.1,7.2-.2,2.2-.6,1.7-.5.1.1-2.4.2-4,.4-6.2,0,0,.3-2.8.4-3.6,2.9-21.5,11.5-32.9,11.5-32.9,0,0,0,0,0,0,.2-.3,0-.8-.4-.9-1.2-.3-2.8-.4-4-.4s-3.3.2-4.9.5c-13.4,2.6-25.3,15.7-29.9,20-3.2,2.9-6.2,6.1-9.1,9.3-2.7,3-5.2,6-7.6,9.2-.5.7-1,1.3-1.5,2-.2.3-2,2.7-4.2,5.6-1.4-4.9-2.1-10.2-2.1-15.7,0-25.6,16.2-46.4,36.1-46.4s13.4,2.5,18.9,6.9c-.3,0-.6.2-.8.2h-.1c0,0-.1,0-.2,0h-.4c-7.7,2.5-16.2,7.4-24.4,14.6-.7-.2-1.4-.3-2.2-.4,0,0-.2,0-.3,0-4.4-.1-9.3,2.3-12.3,4.7-1,.8-1.5,1.6-1.8,2.3v3.5c.5-.5,2.3-2.3,4.3-3.5,2.6-1.7,5.6-2.7,8.3-2.9-1.4,1.3-2.7,2.8-4,4.2-4,1.3-7.1,3.9-8.6,5.8v-3.7s0,0,0,0c-1.4.5-5.1,2.7-5.6,4.4-.1.5-.2,1.6-.2,2.1,0,.1,0,.2,0,.3,0,.2,0,1.4,0,1.4,0,0,2.7-3.7,5.9-4.6v3.4c-2.1.7-4.9,3.4-5.4,4.3-.1.2,0,3.8.1,5.6-1.6,2.7-3.1,5.6-4.5,8.6,2-2.8,4.1-5.6,5.8-7.8,2-2.7,4-5.4,6-8.1.9-1.2,1.8-2.4,2.8-3.6.3-.4.7-.8,1-1.2,2.3-2.8,4.7-5.4,7.3-7.9,1.1-1,2.2-2,3.3-3,.5-.5,1.1-.9,1.6-1.4.4-.4.8-.7,1.3-1.1,1.8-1.5,3.7-3,5.6-4.5,2-1.5,4.1-2.9,6.2-4.2,3.9-2.3,8.1-4,12.4-5.1.3,0,.5-.1.8-.2.7-.1,1.4-.3,2.1-.4,3.3-.4,6.8-.2,9.6,1.5.9.5,1.6,1.2,2.2,1.9.4.5.8,1.1,1.2,1.7.7,1.4,1.2,3.1,1.3,5,0,.7,0,1.2,0,1.8.2-1.3.3-2.7.2-3.9,0-1.7-.7-3.6-1.4-5.1-2.4-4.8-8.1-6.6-13.2-5.9-.2,0-.3,0-.5,0-6.3-5.6-14-8.9-22.3-8.9-25.4,0-42.4,22.1-42.4,49.2s17,49.2,42.4,49.2,38.9-22.1,38.9-49.2-1.9-17.3-5.2-24.5M249.7,92.4c2.6.6,5.1,1.1,7.3,1.2,5.6.4,13.6-.8,19.8.2,2.6.4,4.7,1.9,6.2,3.5-4,2-8.4,3.1-12.9,3.1-7.5,0-14.5-3-20.3-8.1M290.4,87.1c-.4-5.2-.4-10.5,0-15.8.9-10.6,3.9-21.2,10.5-29.8.1-.2.3-.4.6-.7l.2-.2s-.2.2,1.7-2.1c.3-.3.2-.3.5-.7,0,0,0,0,0,0,1.5,5.1,2.3,10.5,2.3,16.3,0,16.8-6.9,31.5-17.3,39.6-3.5-3.5-7.3-4.6-14.3-4.7-6.8,0-13.9,2-23.6,1-1.4-.1-3-.6-4.7-1.1-.8-.9-1.6-1.9-2.4-2.9,2,.6,4,1.2,5.8,1.3,10.8.9,19.1-1.4,26.1-1.5,7.1,0,11.3,1,14.9,3.8,0-.8-.2-1.6-.2-2.4"/>
  </g>
  <g>
    <path class="st1" d="M331.9,58.1c.5-1.8,7-19.2,7.4-20.2.2-.6.8-1.2,1.1-1.2s.7.5.9,1c.4,1.1,5.9,18.2,6.5,20.4h-16ZM368.2,78h-2.4c-1.8,0-3.7-.9-4.9-3.2-1-2.1-5.7-15.4-7.4-21-1.4-4.6-6.5-19.8-7.9-24.3-.2-.8-.4-1.2-.8-1.2s-.6.3-.9.6c-.8,1-4.4,4.2-6.5,4.6-.5.1-.7.4-.7.6s.3.7.5.9c.1.7-.6,2-.7,2.4-.7,1.9-5.8,15.6-6.4,17-2.1,5.9-7.4,19.2-7.9,20.3-1,2.3-2,3.3-4.2,3.3h-2.5c-.3,0-.6.1-.6.5v1.7c0,.4.1.6.5.6,1,0,2.6-.2,7.9-.2s7.2.2,8.2.2.6-.1.6-.6v-1.6c0-.4-.2-.5-.7-.5h-3.4c-1.6,0-2.5-.6-2.5-1.6s.1-1.1.2-1.6c.4-1.5,4.3-12.4,5-14.2h17.8c1,2.9,4,12.1,4.5,14.6.5,2-.1,2.7-2.2,2.7h-1.8c-.4,0-.6,0-.6.5v1.6c0,.4.2.6.6.6,1.6,0,4-.2,9.6-.2h0s9.9,0,9.9,0c0,0,0-.2,0-.3v-1.8c0-.3-.1-.5-.6-.5"/>
    <path class="st1" d="M12.3,54.1c0-4.4-.1-13.2-.1-14.4,0-3.7-.5-4.7-3.2-4.7h-3.4c-.4,0-.4-.1-.4-.6v-1.7c0-.4.2-.5.6-.5,1.4,0,3.8.2,10.1.2s8.2-.2,9.6-.2.7,0,.7.4v1.9c0,.4-.1.6-.6.6h-3.7c-2.5,0-2.8,1.2-2.8,4.1s-.1,9.6-.1,13.6v1.2c0,.4.2.6.9.6h22c1.1,0,1.4-.1,1.4-1.1v-.7c0-4.1-.2-13.1-.2-14,0-2.3-.3-3.7-2.4-3.7h-3.8c-.4,0-.5-.1-.5-.5v-1.9c0-.3,0-.4.4-.4,1.5,0,4.6.2,9.5.2s7.9-.2,9.2-.2.6.1.6.6v1.7c0,.4-.1.5-.6.5h-3.2c-2.1,0-2.3,1.2-2.3,3.8s-.1,12.2-.1,14.9v2.4c0,2.3.1,14.1.2,18.2,0,2.6.7,3.6,2.9,3.6h3.2c.5,0,.7.1.7.5v1.7c0,.4-.1.6-.6.6-1.4,0-3.8-.2-9.1-.2s-8.6.2-10.7.2-.4-.2-.4-.5v-1.8c0-.4.1-.5.6-.5h4.5c1.7,0,2-1.4,2-3.3,0-3.4.2-13.1.2-15.7v-1c0-.8-.4-.9-1.6-.9h-21.8c-.8,0-1,.2-1,.7v1.5c0,1.9,0,11.1.1,16.2,0,1.7.8,2.4,2.3,2.4h3.5c.4,0,.6.1.6.5v1.8c0,.4-.1.5-.6.5-1.4,0-3.9-.2-9.1-.2s-8.4.2-10,.2-.5-.1-.5-.5v-1.9c0-.3.2-.4.5-.4h4.3c1.8,0,2-1.7,2-3.4,0-3.4.2-15.4.2-17.3v-3.1Z"/>
    <path class="st1" d="M59.1,76.5c-3.3-3.9-4-6.6-4-11.7s1.9-8.3,6.2-11.6c3.8-2.9,7.3-3.4,9.7-3.4,4,0,7.9,2,10.1,4.2,3.3,3.3,4.9,7,4.9,11.7,0,7.8-7.1,15.8-16,15.8s-7.9-1.4-11-4.9M80,64.9c0-8-5.9-13-9.5-13s-3.8.4-5.6,2.3c-2.8,2.9-3.8,5.8-3.8,11.3s.4,6.7,2.7,10c1.7,2.4,3.8,3.7,7.1,3.7,5.5,0,9-6.7,9-14.3"/>
    <path class="st1" d="M177.2,76.7c0,1.1.6,1.5,1.6,1.5h2.3c.7,0,.8.2.8.7v1.1c0,.5-.1.8-.6.8s-2.7-.2-6.9-.2-6,.2-6.5.2-.6-.2-.6-.8v-1.1c0-.5.2-.7.9-.7h2.1c.8,0,1.4-.4,1.4-1.6,0-1.9.2-4.2.2-6v-9.5c0-2.9,0-5-2.1-6.5-1.7-1.3-3.5-1.3-5.3-1.3s-3.7.5-5.8,2.8c-1.4,1.6-1.7,3.5-1.7,4.9v14.9c0,1.9.2,2.4,1.7,2.4h1.8c.6,0,.7.2.7.7v1.2c0,.4-.1.6-.5.6s-2.5-.2-6.3-.2-6,.2-6.4.2-.5-.2-.5-.6v-1.3c0-.4.2-.7.7-.7h2.1c.9,0,1.4-.2,1.4-1.4v-16.8c0-2.2-1.2-3.4-3-4.2l-.6-.3c-.5-.2-.6-.4-.6-.6v-.4c0-.4.3-.6.6-.7l6.2-3.4c.6-.3,1-.5,1.3-.5s.5.3.6.9l.5,4.4h.1c2.1-2.6,6.3-5.2,9.9-5.2s4.4.4,6.1,1.6c2.2,1.4,4,5,4,6.8v18.5Z"/>
    <path class="st1" d="M204.7,39.6c0-2.7-.5-3.6-4.5-4.2-.4,0-.5-.2-.5-.5v-1.2c0-.3.1-.4.6-.5,2.8-.6,6.6-1.2,7.9-1.5.7,0,1.2-.2,1.7-.2s.4.5.4,1.3c-.2,3.6-.3,11.2-.3,20.3v15.9c0,2.7.1,5.8.7,6.5.7.7,2.2,1.1,3.2,1.2,1,0,1.3.1,1.4.5v.6c.2.4,0,.7-.4.8l-8.2,2.7c-.4.1-.8,0-.9-.6l-.9-3.2c-2.3,2.3-6.9,3.9-10.6,3.9s-5.1.1-8.5-3.3c-3.7-3.6-4.5-6.8-4.5-11.6s1.7-8.8,5-12.2c2.8-3,6.7-4.5,10.8-4.5s5.6.4,7.7,1.1v-11.2ZM204.7,59.6c0-1,0-2.4-.6-3.5-1-1.9-3.3-3.9-7.6-3.9s-4.7.6-6.6,2.6c-2.8,3-3.3,6.8-3.3,9.5,0,8.1,5.6,14,9.8,14s7.2-2.1,7.9-4c.4-1.1.4-1.6.4-2.4v-12.3Z"/>
    <path class="st1" d="M422.4,61.5c-.1.7-.2,1.8-.2,3.5,0,7,4.5,12.3,10.3,12.3s7.5-2.5,8.7-4.9c.1-.3.4-.4.7-.4l.9.5c.2,0,.4.3,0,1.1-1.3,2.9-5.1,7.8-11.5,7.8s-8.7-1.2-11.3-5.1c-2.5-3.7-3.2-6.3-3.2-11.3s.7-7.6,4.5-11.4c3.1-3.2,6.7-3.8,10.3-3.8,8.3,0,10.6,7.7,10.6,10.5s-.9,1.1-2,1.1h-17.8ZM433.8,59.3c1.4,0,1.9-.4,1.9-1,0-1.7-.9-6.4-5.6-6.4s-6.2,2.1-7.6,7.4h11.2Z"/>
    <path class="st1" d="M449.1,61.5c0-3.7-.6-4.4-2.6-5.4l-1.4-.7c-.4-.1-.6-.2-.6-.5v-.4c0-.3.1-.4.6-.6l7.1-3.7c.4-.2.7-.3,1-.3.4,0,.5.4.5.9l.4,5.1h.3c2.2-3.3,5.6-6.3,8.7-6.3s3.7,1.5,3.7,3.2-1.7,3.5-3,3.5-1.5-.3-2.1-.6c-.6-.4-1.4-.6-2.4-.6s-3,.7-4.3,3c-.4.8-.7,2.1-.7,2.3v14.9c0,2.2.5,2.9,2,2.9h3.4c.4,0,.5.2.5.7v1.3c0,.4,0,.6-.4.6-.4,0-3.8-.2-7.7-.2s-7.5.2-7.9.2-.4-.1-.4-.7v-1.2c0-.5.1-.7.8-.7h2.8c1.1,0,1.6-.4,1.6-1.4,0-2.4,0-4.9,0-8.6v-6.8Z"/>
    <path class="st1" d="M470.8,39c0-1.8,1.5-3.8,4.3-3.8s3.7,2,3.7,3.6-1.2,4-4.1,4-3.9-1.6-3.9-3.8M473.9,59.7c0-2.4-.4-3.7-4-4.3-.5,0-.7-.2-.7-.5v-.6c0-.2.1-.4.5-.5,2.3-.9,5.1-2,7.8-3.5.6-.3.9-.4,1.4-.4s.4.4.4.9c-.1,1.2-.1,5.7-.1,11.7v7.8c0,2.8,0,5.4,0,6.2.1,1.4.4,1.9,1.2,1.9h3.3c.6,0,.7.2.7.7v1.2c0,.5-.1.7-.6.7s-3.9-.2-6.9-.2-7,.2-7.8.2-.6-.1-.6-.6v-1.4c0-.4.2-.6.7-.6h3.5c.8,0,1.1-.3,1.2-1.4,0-2.1,0-4.4,0-6.5v-10.5Z"/>
    <path class="st1" d="M488.2,63.2c0,3.9,1.7,8.3,3.7,10.9,2.4,3.1,5.4,3.7,7.9,3.7,3.6,0,5.5-.8,7.9-3.1.1-.1.4-.2.6,0l.7.7c.3.3.4.5,0,.9-2.1,2.4-6.7,5.1-11.6,5.1s-7.9-.9-11.2-5c-2.7-3.5-3.2-6.5-3.2-9.8,0-8.4,5.9-16.9,15.4-16.9s9.8,4.3,9.8,5.8c0,1.6-1.2,2.5-2.7,2.5s-2.9-.9-4-2.9c-1.6-2.9-3.1-3.2-4.8-3.2-4.1,0-8.5,3.7-8.5,11.1"/>
    <path class="st1" d="M526.7,62.8v-4.6c-.2-1.2-.2-3.1-1-4-.8-.9-2.2-1.6-4.3-1.6s-3.7.6-4.7,1.5c-1,.9-.3,2-.4,3.3-.1,1.7-.3,2.9-2.1,3.5-1.3.5-2.8-.5-2.9-2-.1-1.8.5-3.1,1.6-4.3.8-.8,1.8-1.6,2.8-2.2,3-1.8,5.7-2.5,8.9-2.5s4.8,1,5.8,1.9c1.5,1.5,1.6,3.2,1.6,5.1v15.2c0,4.1.9,5.4,2.2,5.4s2.2-.6,2.5-1.1c.3-.4.4-.5.7-.3l.7.6c.2.2.4.6,0,1.3-.6,1.1-2,3.5-5.6,3.5s-4.5-1.9-5.1-4.8h-.1"/>
    <path class="st1" d="M527.3,77.3h-.1c-1.5,1.7-4,3-7.3,3.8-3.2.7-6.9.3-8.2-3.1-.4-1-.5-2.1-.5-3.1,0-3.3,1.5-6.4,7.3-8.4,3.3-1.2,7.1-2.6,8.3-3.5M526.7,65.3c-2.6,1.7-9.8,2.6-9.8,8.6,0,2.7,1.6,4.1,3.8,4.3,2.1.2,6-2.1,6-4v-8.9Z"/>
    <path class="st1" d="M135.8,62.8v-4.6c-.1-1.2-.2-3.1-1-4-.8-.9-2.2-1.6-4.3-1.6s-3.7.6-4.7,1.5c-1,.9-.3,2-.4,3.3-.1,1.7-.3,2.9-2.1,3.5-1.3.5-2.8-.5-2.9-2-.1-1.8.5-3.1,1.6-4.3.8-.8,1.8-1.6,2.8-2.2,3-1.8,5.7-2.5,8.9-2.5s4.8,1,5.8,1.9c1.5,1.5,1.6,3.2,1.6,5.1v15.2c0,4.1.9,5.4,2.2,5.4s2.2-.6,2.5-1.1c.3-.4.4-.5.7-.3l.7.6c.2.2.4.6,0,1.3-.6,1.1-1.9,3.5-5.6,3.5s-4.5-1.9-5.1-4.8h-.1"/>
    <path class="st1" d="M136.3,77.3h-.1c-1.5,1.7-4,3-7.2,3.8-3.2.7-6.9.3-8.2-3.1-.4-1-.5-2.1-.5-3.1,0-3.3,1.5-6.4,7.3-8.4,3.3-1.2,7.1-2.6,8.3-3.5M135.8,65.3c-2.6,1.7-9.8,2.6-9.8,8.6,0,2.7,1.6,4.1,3.8,4.3,2.1.2,6-2.1,6-4v-8.9Z"/>
    <path class="st1" d="M416.9,78.2h-1.9c-.9,0-1.5-.4-1.5-1.4v-16c0-5.5-1.8-7.1-3.5-8.8-1.7-1.7-4-2.1-6.5-2.1-4.3,0-8.4,2.7-10.6,5.5h-.4c-1.5-3.4-4.4-5.5-8.2-5.5s-8.4,2.5-10.6,5.4h-.2l-.3-4.2c0-.5-.2-1-.7-1s-.8.1-1.4.4l-6.4,3.2c-.1,0-.4.4-.4.6v.6c0,.2.1.4.5.6l1.5.8c1.7.9,2,2.2,2,3.7v12.8c0,1.2,0,2.5,0,3.7,0,1.4-.4,1.8-1.1,1.8h-2.4c-.7,0-.9,0-.9.7v1.3c0,.2,0,.3,0,.4h7.2c4,0,5.9.2,6.6.2s.6-.3.6-.8v-1.1c0-.5,0-.7-.7-.7h-2.6c-1,0-1.4-.7-1.4-1.9v-14.2c0-2,.1-3.4,1-4.8,2-3.2,5.1-4.2,6.9-4.2s3.7.4,4.6,1.3c1.1,1.1,2.2,2.4,2.2,7.8v14.8c0,.9-.4,1.2-1.6,1.2h-2.1c-.6,0-.7.1-.7.7v1.2c0,.5.1.7.5.7s2.9-.2,6.8-.2,5.9.2,6.4.2.5-.2.5-.8v-1.1c0-.5-.1-.7-.8-.7h-2.5c-1.1,0-1.4-.7-1.4-1.7v-12.4c0-3.2,0-5.2,1-7.2,1.2-2.1,4.1-3.7,6.3-3.7s4,.5,5.3,1.5c1.7,1.3,2.1,3.4,2.1,5.7v10.6c0,1.6,0,4.2-.1,5.8,0,1-.7,1.4-1.4,1.4h-1.8c-.8,0-.9.1-.9.7v1.2c0,.5.1.7.6.7s3.1-.2,6.7-.2,5.5.2,6,.2.5-.2.5-.7v-1.2c0-.5-.2-.7-.8-.7"/>
    <path class="st1" d="M100.8,78.2h-3.3c-1.5,0-1.8-1-1.9-2.2,0-2.2,0-13.1,0-16.8v-6.4c0-1.7.2-17.6.3-20,0-.8,0-1.3-.4-1.3-.5,0-1,.1-1.7.2-1.4.3-5.1.9-7.9,1.5-.4,0-.6.2-.6.5v1.2c0,.3,0,.4.5.5,4,.7,4.5,1.5,4.5,4.2,0,0,0,10.3,0,13.5v4.5c0,4.2,0,16.5,0,18.7,0,1.3-.8,1.8-1.6,1.8h-3.5c-.8,0-.9.2-.9.7v1.2c0,.4.1.7.5.7.6,0,3.5-.2,8.2-.2s1.3,0,2,0h6.5c0-.1.1-.3.1-.5v-1.2c0-.4-.2-.7-.8-.7"/>
    <path class="st1" d="M119,78.2h-3.3c-1.5,0-1.8-1-1.9-2.2,0-2.2,0-13.1,0-16.8v-6.4c0-1.7.2-17.6.3-20,0-.8,0-1.3-.4-1.3-.5,0-1,.1-1.7.2-1.4.3-5.1.9-7.9,1.5-.4,0-.6.2-.6.5v1.2c0,.3,0,.4.5.5,4,.7,4.5,1.5,4.5,4.2,0,0,0,10.3,0,13.5v4.5c0,4.2,0,16.5,0,18.7,0,1.3-.8,1.8-1.6,1.8h-3.5c-.8,0-.9.2-.9.7v1.2c0,.4.1.7.5.7.6,0,3.5-.2,8.2-.2s1.3,0,2,0h6.5c0-.1.1-.3.1-.5v-1.2c0-.4-.2-.7-.8-.7"/>
  </g>
</svg>