<?xml version="1.0" encoding="UTF-8"?>
<svg xmlns="http://www.w3.org/2000/svg" version="1.1" viewBox="0 0 236.3 26">
  <defs>
    <style>
      .cls-1 {
        fill: #231f20;
      }

      .cls-2 {
        fill: #ab8d45;
      }
    </style>
  </defs>
  <!-- Generator: Adobe Illustrator 28.7.1, SVG Export Plug-In . SVG Version: 1.2.0 Build 142)  -->
  <g>
    <g id="Layer_1">
      <path class="cls-2" d="M10.1,18.5c-1.4,1.3-3.2,1.9-3.4,2-.2,0-.3-.1-.5-.3-.2-.2-.4-.7-.6-.9-.1-.2,0-.2.3-.3,2.4-.4,4.3-2.1,4.8-2.5.6-.6,1.3-1.4,1.8-2.4-.2,1.2-.5,2.6-2.4,4.4ZM9.7,15.8c-1.1.7-2.8,1.2-4.3,1.5-.8.1-1,0-1,0,0-.2-.5-1.2-.5-1.3,0-.2,0-.2.1-.2.7,0,2-.2,2.7-.3,1.9-.4,3.2-.9,3.9-1.3.7-.4,1.5-1.1,1.7-1.4.3-.3.4-.5.6-.8-.4,2-1.9,3.2-3.1,4ZM22.5,6.7c.1,0,.2,0,.2.2.1,1,.4,3.1-.2,6.3-.2.8-.7,3.1-1.9,5.4-2.5,4.8-5.6,6.4-7.1,7-.4.2-.8.2-1.2,0-2.6-1.2-3.9-2.6-4.7-3.5,0,0,0-.1,0-.2,2.2-.9,3.4-2.4,4.3-3.8.5-.8,1.4-3.3,1.4-5.2s0-2.7.6-3.5c.3-.5,1.6-2.3,5.3-2.7,1.3-.2,3,0,3.2,0ZM22.6,4.3s.2,0,.2.1c0,.1,0,.6,0,.8,0,.1-.1.2-.2.1-.4-.1-2.3-.2-3.7.2-1,.3-2.7,1.2-3.9,2.2-.2.2-.6.5-.6.5,0,0,0-.3.7-1,.3-.3,1-1,1.7-1.4.7-.5,1.6-.9,2.7-1.2,1.2-.3,3.2-.3,3.2-.3ZM22.8,2.3c0,.1,0,.4,0,.6,0,.2,0,.2-.2.2-.6,0-1.8,0-3.5.5-1.4.4-2.8,1.5-3.8,2.4-.4.4-1,1.2-1,1.2,0,0,0-.3.2-.6.4-.7,1-1.4,1.9-2.2.9-.8,2.4-1.4,3.1-1.6.9-.3,2.2-.5,2.8-.5.4,0,.5,0,.5,0ZM22.6,0c.2,0,.2,0,.2.2s0,.5,0,.6,0,.4-.2.4c-.3,0-1.3,0-2.1.2-1.4.3-3.1.7-4.8,2.4-.9.9-2,2.6-2.1,4.1,0,.7-.3,1.9-.4,2.3-.1.3-.9,1.3-2.3,2.1-.9.5-2.1.9-3.4,1-1.6.1-2.9,0-3.4-.2-.4,0-.8-.4-.8-.4,0,0,0-.1-.2-1-.2-1.4-.4-3-.4-4.3V0C2.8,0,2.8,0,2.9,0h19.6Z"/>
      <path class="cls-1" d="M38.6,20c.8,1.6,2.5,3.5,5.6,3.5s5-2.2,5-4.9c0-6.2-11.1-3.5-11.1-11.4s3-6.3,7.6-6.3,3.8.5,5.2,1.6c-.4.8-.7,1.5-1,2.8h-.4c-.5-1.2-1.6-3.2-4.2-3.2s-4.5,1.7-4.5,4.2c0,6.3,11.1,3.7,11.1,11.1s-3.2,7.5-8.6,7.5-4.6-1-5.8-1.9c.4-1,.5-1.7.7-3h.4Z"/>
      <path class="cls-1" d="M59.9,9.9c0-2.9-.1-5.8-.3-8.6,2.1,0,4.2.2,6.3.2s4.2,0,6.3-.2c0,.3-.1.7-.1,1s0,.7.1,1c-3-.2-4.7-.4-9.3-.4,0,1.4-.1,2.6-.1,4.3s0,3.6,0,4.4c4.2,0,6.5-.2,8.6-.3,0,.3-.1.7-.1,1s0,.7.1,1c-2.4-.2-6.9-.3-8.6-.3,0,.8,0,1.6,0,4.9s0,4.2,0,5c3.1,0,7.3,0,9.5-.4,0,.3-.1.7-.1,1s0,.7.1,1c-2.1-.1-4.2-.2-6.3-.2s-4.3,0-6.4.2c.1-2.9.3-5.8.3-8.7v-5.8Z"/>
      <path class="cls-1" d="M86.5,5.4l-3.8,8.5c1.2,0,2.6,0,3.8,0s2.6,0,3.9,0l-3.9-8.5ZM87.7.8c3.5,7.8,8.7,20,10.6,23.6-.6-.1-1.2-.2-1.9-.2s-1.2,0-1.9.2c-.7-2.3-2.4-6-3.6-9-1.5,0-3.1,0-4.6,0s-2.9,0-4.3,0c-1.5,3.5-2.8,6.9-3.4,9-.5-.1-.9-.2-1.3-.2s-.8,0-1.3.2c3.8-7.8,7.4-15.7,11-23.6h.7Z"/>
      <path class="cls-1" d="M105.9,16.2c0,2.2.1,4.5.2,6.8.9.1,2.2.2,3.5.2,3,0,5.7-2,5.7-5.6s-3.1-4.7-7.8-4.7h-1.6v3.4ZM107.9,11.6c3.3,0,6.7-1.1,6.7-4.8s-3.1-4.2-5.7-4.2-2,0-2.7.2c0,2.1-.2,4.3-.2,6.4v2.5h1.9ZM103.1,9.9c0-2.9-.1-5.8-.3-8.6,1.2,0,2.5.2,3.7.2s2.5-.2,3.7-.2c4,0,7.4,1,7.4,4.8s-2.4,5.1-5.9,5.9h0c4.2.3,6.8,1.9,6.8,5.7s-4.8,6.7-8.9,6.7-2.3-.2-3.4-.2-2.3,0-3.4.2c.1-2.9.3-5.8.3-8.7v-5.8Z"/>
      <path class="cls-1" d="M137.6,2.1c-5.5,0-9.7,3.3-9.7,10.8s4.2,10.8,9.7,10.8,9.8-3.3,9.8-10.8-4.2-10.8-9.8-10.8ZM137.6.8c7.8,0,13.2,4.4,13.2,12s-5.4,12-13.2,12-13.2-4.4-13.2-12,5.4-12,13.2-12Z"/>
      <path class="cls-1" d="M175.3,1.3c.5,0,1,.2,1.4.2s.7,0,1.1-.2c-.3,3.1-.6,9-.6,13.9,0,5.9-3.7,9.7-10,9.7s-10.1-3.1-10.1-9.6.2-3.6.2-5.3c0-3.7-.1-6.7-.2-8.7.6,0,1.3.2,1.8.2s1.1,0,1.5-.2c-.2,2-.4,6.5-.4,11.5s0,10.5,7.9,10.5,7.7-6.9,7.7-11.1c0-6.4,0-9.6-.2-10.9Z"/>
      <path class="cls-1" d="M188,11.9c.6.1,1.4.2,2.4.2,2.9,0,6.7-1.1,6.7-5.1s-3.1-4.4-5.5-4.4-2.7.1-3.4.2c-.1,2.4-.2,4.9-.2,7.3v1.9ZM185.1,10c0-2.9-.1-5.8-.3-8.7,1.3,0,2.7.2,4,.2s2.7-.2,4-.2c4,0,7.3,1.3,7.3,5.3s-4.5,6.1-7.2,6.4c1.7,2,7.6,9.3,9.7,11.4-.7-.1-1.4-.2-2.1-.2s-1.4,0-2,.2c-1.4-2-6.1-8.2-9.1-11.1h-1.3v2.4c0,2.9.1,5.8.3,8.7-.6-.1-1.2-.2-1.7-.2s-1.1,0-1.7.2c.1-2.9.3-5.8.3-8.7v-5.8Z"/>
      <path class="cls-1" d="M227.5,24.8c-5.4-6-11.8-12.4-17.8-18.5,0,1.2-.1,3.3-.1,6.8s.1,10,.3,11.3c-.4-.1-.8-.2-1.2-.2s-.8,0-1.3.2c.3-1.6.7-10.2.7-14.6s0-7.5-.1-9h.6c5.7,5.9,13.5,14,17.8,18.1,0-6,0-12.5-.3-17.7.4,0,.8.2,1.2.2s.7,0,1.1-.2c-.2,2-.6,8.6-.6,11.2s0,10.8.1,12.3h-.5Z"/>
      <g id="svg2">
        <path id="path54" class="cls-1" d="M233.9,3.1c.3,0,.7,0,.7-.4s-.3-.4-.6-.4h-.6v.8h.5ZM233.4,4.6h-.4V1.9h1.1c.6,0,1,.2,1,.8s-.3.7-.7.7l.8,1.2h-.5l-.7-1.2h-.5v1.2h0ZM233.9,5.2c1.1,0,1.9-.8,1.9-2s-.8-2-1.9-2-1.9.8-1.9,2,.8,2,1.9,2ZM231.5,3.2c0-1.4,1.1-2.4,2.4-2.4s2.4,1,2.4,2.4-1.1,2.4-2.4,2.4-2.4-1-2.4-2.4"/>
      </g>
    </g>
  </g>
</svg>